# xmcd CD database file
#
# Track frame offsets:
#	150
#	21225
#	41985
#	60053
#	77205
#	96850
#	112295
#	131923
#	154038
#	170168
#
# Disc length: 2605 seconds
#
# Revision: 3
# Processed by: cddbd v1.5.2PL0 Copyright (c) Steve Scherf et al.
# Submitted via: CDex 1.51
#
DISCID=890a2b0a
DTITLE=Y and T - In Rock We Trust
DYEAR=1984
DGENRE=Hard Rock
TTITLE0=Rock and Roll's Gonna Save The World
TTITLE1=Life, Life, Life
TTITLE2=Masters And Slaves
TTITLE3=I'll Keep On Believin' (Do You Know)
TTITLE4=Break Out Tonight!
TTITLE5=Lipstick And Leather
TTITLE6=Don't Stop Runnin'
TTITLE7=(Your Love Is) Drivin' Me Crazy
TTITLE8=She's A Liar
TTITLE9=This Time
EXTD=YEAR: 1984
EXTT0=
EXTT1=
EXTT2=
EXTT3=
EXTT4=
EXTT5=
EXTT6=
EXTT7=
EXTT8=
EXTT9=
PLAYORDER=
